<svg height='100px' width='100px'  fill="#1f9f8b" xmlns="http://www.w3.org/2000/svg" xmlns:xlink="http://www.w3.org/1999/xlink" version="1.1" x="0px" y="0px" viewBox="0 0 20 20" enable-background="new 0 0 20 20" xml:space="preserve"><g><path fill="#1f9f8b" d="M16,0H4C1.8,0,0,1.8,0,4v8c0,2.2,1.8,4,4,4v4l8.4-4H16c2.2,0,4-1.8,4-4V4C20,1.8,18.2,0,16,0z M18,12   c0,1.1-0.9,2-2,2h-4l-6,2.8V14H4c-1.1,0-2-0.9-2-2V4c0-1.1,0.9-2,2-2h12c1.1,0,2,0.9,2,2V12z"></path><polygon fill="#1f9f8b" points="9,8.6 6.4,6 5,7.4 9,11.4 15,5.4 13.6,4  "></polygon></g></svg>